HIERARCHY
ROOT Hips
{
	OFFSET 0.00000 0.00000 0.00000
	CHANNELS 6 Xposition Yposition Zposition Zrotation Yrotation Xrotation 
	JOINT LHipJoint
	{
		OFFSET 0 0 0
		CHANNELS 3 Zrotation Yrotation Xrotation
		JOINT LeftUpLeg
		{
			OFFSET 1.41261 -1.82971 0.84908
			CHANNELS 3 Zrotation Yrotation Xrotation
			JOINT LeftLeg
			{
				OFFSET 2.52554 -6.93888 0.00000
				CHANNELS 3 Zrotation Yrotation Xrotation
				JOINT LeftFoot
				{
					OFFSET 2.56654 -7.05152 0.00000
					CHANNELS 3 Zrotation Yrotation Xrotation
					JOINT LeftToeBase
					{
						OFFSET 0.21698 -0.59616 1.85369
						CHANNELS 3 Zrotation Yrotation Xrotation
						End Site
						{
							OFFSET 0.00000 -0.00000 0.97832
						}
					}
				}
			}
		}
	}
	JOINT RHipJoint
	{
		OFFSET 0 0 0
		CHANNELS 3 Zrotation Yrotation Xrotation
		JOINT RightUpLeg
		{
			OFFSET -1.12808 -1.82971 0.84907
			CHANNELS 3 Zrotation Yrotation Xrotation
			JOINT RightLeg
			{
				OFFSET -2.53425 -6.96280 0.00000
				CHANNELS 3 Zrotation Yrotation Xrotation
				JOINT RightFoot
				{
					OFFSET -2.58413 -7.09983 0.00000
					CHANNELS 3 Zrotation Yrotation Xrotation
					JOINT RightToeBase
					{
						OFFSET -0.26437 -0.72636 1.92241
						CHANNELS 3 Zrotation Yrotation Xrotation
						End Site
						{
							OFFSET -0.00000 -0.00000 1.02667
						}
					}
				}
			}
		}
	}
	JOINT LowerBack
	{
		OFFSET 0 0 0
		CHANNELS 3 Zrotation Yrotation Xrotation
		JOINT Spine
		{
			OFFSET -0.02096 2.02288 -0.14752
			CHANNELS 3 Zrotation Yrotation Xrotation
			JOINT Spine1
			{
				OFFSET 0.03477 2.03136 -0.02358
				CHANNELS 3 Zrotation Yrotation Xrotation
				JOINT Neck
				{
					OFFSET 0 0 0
					CHANNELS 3 Zrotation Yrotation Xrotation
					JOINT Neck1
					{
						OFFSET 0.00174 1.74359 0.19336
						CHANNELS 3 Zrotation Yrotation Xrotation
						JOINT Head
						{
							OFFSET -0.03054 1.76140 -0.17751
							CHANNELS 3 Zrotation Yrotation Xrotation
							End Site
							{
								OFFSET -0.00863 1.77239 -0.08120
							}
						}
					}
				}
				JOINT LeftShoulder
				{
					OFFSET 0 0 0
					CHANNELS 3 Zrotation Yrotation Xrotation
					JOINT LeftArm
					{
						OFFSET 3.68685 1.32687 -0.67367
						CHANNELS 3 Zrotation Yrotation Xrotation
						JOINT LeftForeArm
						{
							OFFSET 4.76468 -0.00000 -0.00000
							CHANNELS 3 Zrotation Yrotation Xrotation
							JOINT LeftHand
							{
								OFFSET 3.52712 -0.00000 -0.00000
								CHANNELS 3 Zrotation Yrotation Xrotation
								JOINT LeftFingerBase
								{
									OFFSET 0 0 0
									CHANNELS 3 Zrotation Yrotation Xrotation
									JOINT LeftHandIndex1
									{
										OFFSET 0.85956 -0.00000 -0.00000
										CHANNELS 3 Zrotation Yrotation Xrotation
										End Site
										{
											OFFSET 0.69300 -0.00000 -0.00000
										}
									}
								}
								JOINT LThumb
								{
									OFFSET 0 0 0
									CHANNELS 3 Zrotation Yrotation Xrotation
									End Site
									{
										OFFSET 0.70358 -0.00000 0.70358
									}
								}
							}
						}
					}
				}
				JOINT RightShoulder
				{
					OFFSET 0 0 0
					CHANNELS 3 Zrotation Yrotation Xrotation
					JOINT RightArm
					{
						OFFSET -3.31304 1.28268 -0.97357
						CHANNELS 3 Zrotation Yrotation Xrotation
						JOINT RightForeArm
						{
							OFFSET -4.90577 -0.00000 -0.00000
							CHANNELS 3 Zrotation Yrotation Xrotation
							JOINT RightHand
							{
								OFFSET -3.42692 -0.00000 0.00000
								CHANNELS 3 Zrotation Yrotation Xrotation
								JOINT RightFingerBase
								{
									OFFSET 0 0 0
									CHANNELS 3 Zrotation Yrotation Xrotation
									JOINT RightHandIndex1
									{
										OFFSET -0.74096 -0.00000 -0.00000
										CHANNELS 3 Zrotation Yrotation Xrotation
										End Site
										{
											OFFSET -0.59738 -0.00000 -0.00000
										}
									}
								}
								JOINT RThumb
								{
									OFFSET 0 0 0
									CHANNELS 3 Zrotation Yrotation Xrotation
									End Site
									{
										OFFSET -0.60650 -0.00000 0.60650
									}
								}
							}
						}
					}
				}
			}
		}
	}
}
MOTION
Frames: 16
Frame Time: .0083333
0.5883 17.9957 -3.516 0 0 0 0 0 0 -21 0 0 0 0 0 0 0 0 0 0 0 0 0 0 21 0 0 0 0 0 0 0 0 0 0 0 0 0 0 0 0 0 0 0 0 0 0 -16 0 0 21 0 0 11 0 0 0 -8 0 0 0 0 0 0 0 0 0 0 0 0 0 0 0 0 0 0 0 0 8 0 0 0 0 0 0 0 0 0 0 0 0 0 0 0 0 0
0.5883 17.9957 -3.5160 -2.5030 0.2510 3.5732 0.0000 0.0000 0.0000 -15.3923 1.2637 1.8303 0.1538 2.5268 6.9640 0.4346 -1.4133 -12.0422 2.2939 -9.4531 -27.2233 0.0000 0.0000 0.0000 20.6101 -0.6448 -2.4507 -0.5725 -4.8457 13.4689 -0.4363 -5.0586 -15.3630 -0.3465 -3.7820 10.4643 -3.2382 -1.6264 3.2889 1.9649 -2.2573 0.1197 3.9405 -1.1004 -1.5160 -9.8700 -8.9390 -0.3173 -3.5412 -11.0308 18.0691 -0.1414 -6.2287 5.9425 0.0000 -0.0000 0.0000 -99.0012 12.8038 -2.7063 15.5903 -24.9620 -3.4713 -0.0000 -0.0000 48.3070 5.7776 -37.8319 -3.5512 -7.1250 0.0000 -0.0000 -14.9359 -6.8677 17.1762 0.0000 -0.0000 0.0000 96.0109 -5.5009 13.7292 -12.3080 20.2650 -2.2078 0.0000 -0.0000 -8.5686 10.6993 -39.6213 -6.8703 7.1250 -0.0000 -0.0000 54.1174 -61.2554 -25.4454
0.5813 17.9928 -3.5143 -1.9510 0.3089 3.4732 0.0000 0.0000 0.0000 -15.9983 1.2148 1.8994 0.1569 2.5523 7.0347 0.4467 -1.5641 -12.1790 2.8313 -10.4168 -30.3374 0.0000 0.0000 0.0000 19.9634 -0.5970 -2.3043 -0.5703 -4.8364 13.4426 -0.4246 -5.2452 -15.3550 -0.3207 -3.6402 10.0666 -3.9842 -1.6546 3.4287 1.9023 -2.3295 0.0487 4.3064 -1.1272 -1.6341 -10.2061 -9.0676 -0.3681 -3.2169 -11.2343 17.9727 -0.0077 -6.3249 5.9679 -0.0000 -0.0000 0.0000 -99.1003 12.7887 2.2520 16.3693 -26.0189 -3.8065 -0.0000 -0.0000 30.0322 -1.7051 -27.8590 0.7970 -7.1250 0.0000 -0.0000 -18.7798 3.3358 18.7064 -0.0000 -0.0000 0.0000 95.4024 -5.2716 12.7654 -12.1244 19.9909 -2.1446 0.0000 -0.0000 -8.6860 11.4992 -39.2819 -7.3395 7.1250 -0.0000 -0.0000 54.3533 -60.8341 -25.0547
0.5726 17.9879 -3.5168 -1.3067 0.3399 3.3510 0.0000 0.0000 0.0000 -16.7168 1.0928 1.9902 0.1609 2.5841 7.1230 0.4500 -1.5706 -12.2237 2.9743 -10.6533 -31.1194 0.0000 0.0000 0.0000 19.2316 -0.4118 -2.1075 -0.5704 -4.8367 13.4435 -0.4159 -5.4896 -15.4357 -0.3286 -3.6843 10.1900 -4.8144 -1.6694 3.6882 1.7759 -2.3972 -0.0236 4.6586 -1.1477 -1.8192 -10.3978 -8.9461 0.4119 -2.5921 -11.2759 16.9124 0.2813 -6.2837 5.5473 -0.0000 -0.0000 0.0000 -99.1627 12.9476 9.1642 18.6675 -29.0035 -4.8686 -0.0000 -0.0000 0.1181 -5.0208 -8.8404 0.7735 -7.1250 0.0000 -0.0000 -22.5328 21.2716 13.9173 -0.0000 -0.0000 0.0000 94.7640 -4.9613 12.0550 -11.8828 19.6286 -2.0627 0.0000 -0.0000 -8.8108 12.9270 -39.2920 -8.2702 7.1250 -0.0000 -0.0000 55.5988 -60.4784 -25.3764
0.5656 17.9817 -3.5191 -0.7068 0.3300 3.2539 0.0000 0.0000 0.0000 -17.3722 1.0782 2.0116 0.1655 2.6207 7.2244 0.4512 -1.5974 -12.2355 2.9434 -10.6028 -30.9518 0.0000 0.0000 0.0000 18.5514 -0.1850 -1.9136 -0.5693 -4.8320 13.4301 -0.4123 -5.6871 -15.5491 -0.3584 -3.8459 10.6434 -5.5682 -1.6736 3.9698 1.6536 -2.4549 -0.1223 4.9737 -1.1601 -2.0473 -10.5099 -8.9452 0.8219 -2.2052 -11.3931 16.1765 0.4503 -6.3020 5.2795 -0.0000 0.0000 0.0000 -99.2032 13.1610 12.9941 21.5004 -32.4078 -6.3160 -0.0000 0.0000 -24.3822 2.4096 6.4478 0.2707 -7.1250 0.0000 -0.0000 -20.1586 35.7634 4.8238 -0.0000 0.0000 0.0000 94.0008 -4.6919 11.7617 -11.6900 19.3381 -1.9984 0.0000 -0.0000 -8.5748 14.7160 -39.8404 -9.5513 7.1250 -0.0000 -0.0000 57.8576 -60.3635 -26.6810
0.5689 17.9805 -3.5102 -0.7964 0.2571 3.2765 0.0000 0.0000 0.0000 -17.2543 1.2109 1.9889 0.1636 2.6059 7.1833 0.4553 -1.6282 -12.2863 2.8008 -10.3654 -30.1684 0.0000 0.0000 0.0000 18.6466 -0.1510 -1.8782 -0.5667 -4.8212 13.3994 -0.4164 -5.6632 -15.5827 -0.3495 -3.7986 10.5107 -5.4800 -1.6791 3.9438 1.7101 -2.4582 -0.2643 4.9855 -1.1546 -2.1806 -10.6109 -9.1937 0.4169 -2.2810 -11.6620 16.4296 0.3952 -6.4516 5.4412 -0.0000 0.0000 0.0000 -99.1552 13.1364 12.3211 21.2415 -32.1092 -6.1778 -0.0000 0.0000 -23.1995 2.9596 6.1394 0.3168 -7.1250 0.0000 -0.0000 -19.6439 35.5062 4.8182 -0.0000 0.0000 0.0000 93.1314 -4.6505 11.8287 -11.6466 19.2725 -1.9841 0.0000 -0.0000 -7.7991 15.4753 -40.6379 -10.2213 7.1250 -0.0000 -0.0000 59.5893 -60.6447 -28.2342
0.5743 17.9797 -3.5033 -0.9030 0.1734 3.2906 0.0000 0.0000 0.0000 -17.1372 1.3221 1.9752 0.1606 2.5824 7.1182 0.4591 -1.6056 -12.3442 2.5267 -9.8863 -28.6094 0.0000 0.0000 0.0000 18.7596 -0.1380 -1.8763 -0.5661 -4.8189 13.3927 -0.4166 -5.6780 -15.5967 -0.3107 -3.5834 9.9076 -5.3474 -1.6583 3.9080 1.7684 -2.4239 -0.4343 4.9727 -1.1294 -2.3437 -10.8478 -9.4147 0.3362 -2.2060 -11.9495 16.5945 0.4224 -6.6066 5.5407 -0.0000 -0.0000 0.0000 -99.1061 13.2719 11.8231 21.1001 -31.9450 -6.1028 -0.0000 0.0000 -22.0870 3.0935 6.4093 0.3457 -7.1250 0.0000 -0.0000 -19.6034 35.7687 4.6743 -0.0000 -0.0000 0.0000 92.2385 -4.7203 11.5677 -11.5375 19.1074 -1.9482 0.0000 -0.0000 -6.1281 15.0292 -40.6210 -9.9154 7.1250 -0.0000 -0.0000 59.1937 -60.7500 -28.1110
0.5805 17.9791 -3.4953 -0.9979 0.0370 3.2841 0.0000 0.0000 0.0000 -17.0534 1.3611 2.0558 0.1585 2.5654 7.0710 0.4564 -1.4756 -12.3355 2.4423 -9.7321 -28.1136 0.0000 0.0000 0.0000 18.8583 -0.0672 -1.8289 -0.5644 -4.8115 13.3718 -0.4176 -5.6286 -15.5692 -0.2980 -3.5102 9.7025 -5.1773 -1.6044 3.9150 1.7760 -2.3463 -0.5707 4.8843 -1.0845 -2.5048 -10.9140 -9.5864 0.2625 -2.0666 -12.1914 16.6469 0.4515 -6.7222 5.5933 0.0000 -0.0000 0.0000 -99.0407 13.3524 11.4868 20.9201 -31.7350 -6.0079 -0.0000 0.0000 -21.3859 3.5746 6.7069 0.4180 -7.1250 0.0000 -0.0000 -19.2917 36.0790 4.4381 0.0000 -0.0000 0.0000 91.4088 -4.6480 10.5805 -11.2961 18.7407 -1.8699 0.0000 -0.0000 -3.0046 14.9813 -39.9308 -9.7461 7.1250 -0.0000 -0.0000 58.2037 -60.3508 -26.8919
0.5874 17.9790 -3.4867 -1.0338 -0.1350 3.2909 0.0000 0.0000 0.0000 -17.0471 1.3581 2.1561 0.1583 2.5633 7.0651 0.4543 -1.3204 -12.3413 2.5501 -9.9285 -28.7456 0.0000 0.0000 0.0000 18.8873 0.0563 -1.7721 -0.5620 -4.8016 13.3434 -0.4128 -5.6082 -15.4907 -0.3138 -3.6013 9.9575 -5.0510 -1.5620 3.9457 1.7553 -2.2875 -0.6975 4.7926 -1.0491 -2.6662 -10.9250 -9.6993 0.1345 -1.8822 -12.3579 16.6418 0.4903 -6.7934 5.6322 0.0000 0.0000 0.0000 -99.1055 13.3130 10.9886 20.6140 -31.3750 -5.8477 -0.0000 0.0000 -20.6501 4.4611 6.7516 0.5255 -7.1250 0.0000 -0.0000 -18.5896 36.1759 4.2152 0.0000 0.0000 0.0000 90.6280 -4.4963 9.4802 -11.1490 18.5163 -1.8230 0.0000 0.0000 0.5355 15.3397 -39.8697 -9.9734 7.1250 -0.0000 -0.0000 58.4219 -60.2231 -26.8589
0.5961 17.9791 -3.4811 -1.0221 -0.3098 3.3112 0.0000 0.0000 0.0000 -17.0969 1.4261 2.1694 0.1583 2.5635 7.0657 0.4579 -1.2216 -12.4157 2.6273 -10.0657 -29.1897 0.0000 0.0000 0.0000 18.8561 0.1929 -1.7520 -0.5628 -4.8052 13.3537 -0.4080 -5.6329 -15.4477 -0.3309 -3.6968 10.2251 -4.9609 -1.5358 3.9460 1.7386 -2.2501 -0.8018 4.7248 -1.0260 -2.7828 -10.9780 -9.7549 0.0912 -1.6509 -12.4636 16.5007 0.5623 -6.8307 5.6171 0.0000 0.0000 0.0000 -99.3439 13.1490 10.2972 20.2391 -30.9293 -5.6537 -0.0000 0.0000 -19.7121 5.4643 6.7565 0.6448 -7.1250 0.0000 -0.0000 -17.7805 36.2419 3.9860 0.0000 0.0000 0.0000 89.8663 -4.3272 8.8482 -11.0383 18.3470 -1.7880 0.0000 0.0000 2.5022 13.5233 -39.7593 -8.7447 7.1250 -0.0000 -0.0000 56.7373 -60.6174 -26.2938
0.6054 17.9793 -3.4767 -0.9421 -0.4739 3.3111 0.0000 0.0000 0.0000 -17.2248 1.5677 2.1425 0.1591 2.5703 7.0846 0.4583 -1.1527 -12.4390 2.7232 -10.2328 -29.7341 0.0000 0.0000 0.0000 18.7436 0.3300 -1.7073 -0.5639 -4.8095 13.3661 -0.4059 -5.6442 -15.4292 -0.3351 -3.7199 10.2901 -4.9197 -1.5206 3.9381 1.6975 -2.2293 -0.8591 4.6586 -1.0134 -2.8433 -10.8614 -9.7860 0.0233 -1.5715 -12.5204 16.2683 0.5695 -6.8407 5.5533 -0.0000 -0.0000 0.0000 -99.6559 12.9929 9.7548 19.9459 -30.5772 -5.5038 -0.0000 0.0000 -19.0899 6.5625 6.8343 0.7843 -7.1250 0.0000 -0.0000 -16.9074 36.3835 3.7144 -0.0000 -0.0000 0.0000 89.1668 -4.0837 8.2102 -10.8970 18.1302 -1.7437 0.0000 0.0000 3.6372 10.4795 -38.7808 -6.6085 7.1250 -0.0000 -0.0000 52.7972 -60.7697 -24.0074
0.6142 17.9790 -3.4698 -0.8614 -0.6215 3.2813 0.0000 0.0000 0.0000 -17.3565 1.6726 2.1819 0.1602 2.5786 7.1075 0.4530 -1.0783 -12.3846 2.7969 -10.3588 -30.1465 0.0000 0.0000 0.0000 18.6244 0.4195 -1.5983 -0.5597 -4.7918 13.3157 -0.4063 -5.6318 -15.4245 -0.3156 -3.6111 9.9851 -4.8804 -1.5268 3.9099 1.6625 -2.2355 -0.8810 4.5997 -1.0167 -2.8522 -10.7416 -9.7789 -0.0524 -1.4479 -12.5312 16.0028 0.5936 -6.8249 5.4807 0.0000 -0.0000 0.0000 -100.0390 12.9608 9.4758 19.7388 -30.3263 -5.3988 -0.0000 0.0000 -18.7103 7.5755 6.8321 0.9064 -7.1250 0.0000 -0.0000 -16.0816 36.4428 3.4963 0.0000 -0.0000 0.0000 88.5112 -3.6667 7.0944 -10.7547 17.9113 -1.6997 0.0000 0.0000 5.0053 8.8508 -38.1319 -5.4921 7.1250 -0.0000 -0.0000 50.5118 -60.7491 -22.6104
0.6257 17.9779 -3.4619 -0.8309 -0.7769 3.2690 0.0000 0.0000 0.0000 -17.4404 1.7401 2.2283 0.1611 2.5857 7.1273 0.4530 -1.0123 -12.4022 2.7692 -10.3117 -29.9920 0.0000 0.0000 0.0000 18.5368 0.4632 -1.5353 -0.5569 -4.7801 13.2825 -0.4141 -5.5485 -15.4597 -0.3028 -3.5382 9.7811 -4.7618 -1.5384 3.8418 1.6535 -2.2426 -0.9031 4.5216 -1.0222 -2.8404 -10.8038 -9.7227 -0.0879 -1.1099 -12.5006 15.7273 0.7131 -6.7871 5.4225 0.0000 0.0000 0.0000 -100.4977 12.9954 9.4077 19.5155 -30.0541 -5.2865 -0.0000 0.0000 -18.3231 8.2859 6.5971 0.9585 -7.1250 0.0000 -0.0000 -15.4511 36.2572 3.4230 0.0000 0.0000 0.0000 87.8561 -3.1373 5.9180 -10.5908 17.6583 -1.6496 0.0000 0.0000 5.8155 8.1968 -38.1940 -5.0897 7.1250 -0.0000 -0.0000 50.0072 -60.9554 -22.5607
0.6393 17.9768 -3.4545 -0.7584 -0.8978 3.2857 0.0000 0.0000 0.0000 -17.5825 1.8530 2.1872 0.1622 2.5950 7.1531 0.4609 -1.0227 -12.5101 2.6620 -10.1267 -29.3882 0.0000 0.0000 0.0000 18.3806 0.4578 -1.5396 -0.5568 -4.7796 13.2809 -0.4192 -5.4325 -15.4321 -0.3162 -3.6145 9.9946 -4.6649 -1.5647 3.7611 1.6347 -2.2703 -0.9407 4.4465 -1.0373 -2.8351 -10.8295 -9.6810 -0.1698 -0.9311 -12.4619 15.5168 0.7754 -6.7539 5.3800 -0.0000 -0.0000 0.0000 -100.9730 13.0721 9.5914 19.3139 -29.8069 -5.1860 -0.0000 0.0000 -18.2078 8.6648 6.0746 0.9239 -7.1250 0.0000 -0.0000 -15.0343 35.7696 3.5100 -0.0000 -0.0000 0.0000 87.2442 -2.7117 5.1568 -10.5136 17.5388 -1.6263 0.0000 0.0000 5.6471 7.7159 -38.4722 -4.8182 7.1250 -0.0000 -0.0000 49.9380 -61.2657 -22.8881
0.6518 17.9754 -3.4465 -0.6566 -0.9800 3.2915 0.0000 0.0000 0.0000 -17.7604 1.9976 2.1403 0.1617 2.5906 7.1409 0.4662 -1.0544 -12.5741 2.4737 -9.7900 -28.2993 0.0000 0.0000 0.0000 18.2118 0.4751 -1.5131 -0.5568 -4.7799 13.2818 -0.4204 -5.3673 -15.3960 -0.3218 -3.6465 10.0842 -4.6104 -1.6047 3.6832 1.6006 -2.3189 -0.9740 4.3806 -1.0624 -2.8237 -10.8565 -9.6452 -0.1976 -0.7268 -12.4410 15.2400 0.8491 -6.7267 5.3101 0.0000 -0.0000 0.0000 -101.4110 13.2239 10.0647 19.1801 -29.6418 -5.1196 -0.0000 0.0000 -18.6439 8.5866 5.5058 0.8300 -7.1250 0.0000 -0.0000 -14.9843 35.2101 3.7088 0.0000 -0.0000 0.0000 86.7387 -2.3588 4.3745 -10.5469 17.5904 -1.6364 0.0000 0.0000 5.7662 8.6139 -39.0612 -5.4528 7.1250 -0.0000 -0.0000 51.5229 -61.4297 -24.0423
0.6633 17.9745 -3.4380 -0.6344 -1.0880 3.2704 0.0000 0.0000 0.0000 -17.8243 2.1411 2.1623 0.1603 2.5794 7.1099 0.4689 -1.0050 -12.6251 2.3657 -9.5896 -27.6577 0.0000 0.0000 0.0000 18.1655 0.5901 -1.4263 -0.5578 -4.7839 13.2933 -0.4216 -5.3864 -15.4269 -0.3197 -3.6345 10.0507 -4.4586 -1.6102 3.6225 1.5722 -2.3172 -0.9892 4.2634 -1.0645 -2.8121 -10.9769 -9.6180 -0.2368 -0.3218 -12.4521 14.9448 0.9940 -6.7086 5.2567 -0.0000 -0.0000 0.0000 -101.8066 13.3963 10.8283 19.1069 -29.5513 -5.0835 -0.0000 0.0000 -19.6921 7.9804 5.2031 0.7284 -7.1250 0.0000 -0.0000 -15.4142 34.8842 3.9484 -0.0000 -0.0000 0.0000 86.3444 -2.0049 3.5638 -10.5880 17.6539 -1.6488 0.0000 0.0000 5.8379 9.5832 -39.4168 -6.1190 7.1250 -0.0000 -0.0000 52.8612 -61.4123 -24.8503
